<mxfile host="app.diagrams.net" modified="2022-07-25T14:13:15.299Z" agent="5.0 (Windows)" etag="JmSlrY_ZwxSG407GIUDo" version="20.2.0" type="github">
  <diagram name="Page-1" id="58cdce13-f638-feb5-8d6f-7d28b1aa9fa0">
    <mxGraphModel dx="1298" dy="1510" grid="1" gridSize="10" guides="1" tooltips="1" connect="1" arrows="1" fold="1" page="1" pageScale="1" pageWidth="1100" pageHeight="850" background="none" math="0" shadow="0">
      <root>
        <mxCell id="0" />
        <mxCell id="1" parent="0" />
        <mxCell id="n5EENzQxj84cjImb0H1i-2" style="edgeStyle=elbowEdgeStyle;shape=connector;rounded=1;orthogonalLoop=1;jettySize=auto;html=1;entryX=0.5;entryY=0;entryDx=0;entryDy=0;labelBackgroundColor=none;fontFamily=Verdana;fontSize=12;fontColor=default;endArrow=open;endSize=8;strokeColor=#ff0000;" edge="1" parent="1" source="382b91b5511bd0f7-1" target="n5EENzQxj84cjImb0H1i-1">
          <mxGeometry relative="1" as="geometry">
            <Array as="points">
              <mxPoint x="540" y="-190" />
              <mxPoint x="430" y="-230" />
            </Array>
          </mxGeometry>
        </mxCell>
        <mxCell id="382b91b5511bd0f7-1" value="" style="ellipse;html=1;shape=startState;fillColor=#000000;strokeColor=#ff0000;rounded=1;shadow=0;comic=0;labelBackgroundColor=none;fontFamily=Verdana;fontSize=12;fontColor=#000000;align=center;direction=south;" parent="1" vertex="1">
          <mxGeometry x="235" y="-240" width="30" height="30" as="geometry" />
        </mxCell>
        <mxCell id="h1i1fMUlBGNaVs3A6D3q-11" style="edgeStyle=elbowEdgeStyle;shape=connector;rounded=1;orthogonalLoop=1;jettySize=auto;html=1;exitX=0.5;exitY=1;exitDx=0;exitDy=0;entryX=0.5;entryY=0;entryDx=0;entryDy=0;labelBackgroundColor=none;fontFamily=Verdana;fontSize=12;fontColor=default;endArrow=open;endSize=8;strokeColor=#ff0000;" parent="1" source="382b91b5511bd0f7-6" target="h1i1fMUlBGNaVs3A6D3q-4" edge="1">
          <mxGeometry relative="1" as="geometry" />
        </mxCell>
        <mxCell id="382b91b5511bd0f7-6" value="Recherche" style="rounded=1;whiteSpace=wrap;html=1;arcSize=24;fillColor=#ffffc0;strokeColor=#ff0000;shadow=0;comic=0;labelBackgroundColor=none;fontFamily=Verdana;fontSize=12;fontColor=#000000;align=center;" parent="1" vertex="1">
          <mxGeometry x="190" y="-150" width="120" height="60" as="geometry" />
        </mxCell>
        <mxCell id="2a3bc250acf0617d-7" value="&lt;div&gt;Appli web&lt;/div&gt;" style="swimlane;whiteSpace=wrap;html=1;rounded=1;shadow=0;comic=0;labelBackgroundColor=none;strokeWidth=1;fontFamily=Verdana;fontSize=12;align=center;" parent="1" vertex="1">
          <mxGeometry x="400" y="-70" width="790" height="1000" as="geometry" />
        </mxCell>
        <mxCell id="h1i1fMUlBGNaVs3A6D3q-15" style="edgeStyle=elbowEdgeStyle;shape=connector;rounded=1;orthogonalLoop=1;jettySize=auto;html=1;exitX=0.5;exitY=1;exitDx=0;exitDy=0;entryX=0;entryY=0.5;entryDx=0;entryDy=0;labelBackgroundColor=none;fontFamily=Verdana;fontSize=12;fontColor=default;endArrow=open;endSize=8;strokeColor=#ff0000;" parent="2a3bc250acf0617d-7" source="382b91b5511bd0f7-8" target="h1i1fMUlBGNaVs3A6D3q-14" edge="1">
          <mxGeometry relative="1" as="geometry" />
        </mxCell>
        <mxCell id="382b91b5511bd0f7-8" value="Cherche tous les jeux" style="rounded=1;whiteSpace=wrap;html=1;arcSize=24;fillColor=#ffffc0;strokeColor=#ff0000;shadow=0;comic=0;labelBackgroundColor=none;fontFamily=Verdana;fontSize=12;fontColor=#000000;align=center;" parent="2a3bc250acf0617d-7" vertex="1">
          <mxGeometry x="30" y="180" width="120" height="60" as="geometry" />
        </mxCell>
        <mxCell id="3cde6dad864a17aa-1" value="Affichage des jeux" style="rounded=1;whiteSpace=wrap;html=1;arcSize=24;fillColor=#ffffc0;strokeColor=#ff0000;shadow=0;comic=0;labelBackgroundColor=none;fontFamily=Verdana;fontSize=12;fontColor=#000000;align=center;" parent="2a3bc250acf0617d-7" vertex="1">
          <mxGeometry x="120" y="360" width="120" height="60" as="geometry" />
        </mxCell>
        <mxCell id="3cde6dad864a17aa-2" value="Cherche le jeu" style="rounded=1;whiteSpace=wrap;html=1;arcSize=24;fillColor=#ffffc0;strokeColor=#ff0000;shadow=0;comic=0;labelBackgroundColor=none;fontFamily=Verdana;fontSize=12;fontColor=#000000;align=center;" parent="2a3bc250acf0617d-7" vertex="1">
          <mxGeometry x="130" y="475" width="120" height="60" as="geometry" />
        </mxCell>
        <mxCell id="h1i1fMUlBGNaVs3A6D3q-16" style="edgeStyle=elbowEdgeStyle;shape=connector;rounded=1;orthogonalLoop=1;jettySize=auto;html=1;exitX=0.5;exitY=1;exitDx=0;exitDy=0;entryX=1;entryY=0.5;entryDx=0;entryDy=0;labelBackgroundColor=none;fontFamily=Verdana;fontSize=12;fontColor=default;endArrow=open;endSize=8;strokeColor=#ff0000;" parent="2a3bc250acf0617d-7" source="h1i1fMUlBGNaVs3A6D3q-6" target="h1i1fMUlBGNaVs3A6D3q-14" edge="1">
          <mxGeometry relative="1" as="geometry" />
        </mxCell>
        <mxCell id="h1i1fMUlBGNaVs3A6D3q-6" value="Cherche les jeux filtrés" style="rounded=1;whiteSpace=wrap;html=1;arcSize=24;fillColor=#ffffc0;strokeColor=#ff0000;shadow=0;comic=0;labelBackgroundColor=none;fontFamily=Verdana;fontSize=12;fontColor=#000000;align=center;" parent="2a3bc250acf0617d-7" vertex="1">
          <mxGeometry x="190" y="180" width="120" height="60" as="geometry" />
        </mxCell>
        <mxCell id="h1i1fMUlBGNaVs3A6D3q-17" style="edgeStyle=elbowEdgeStyle;shape=connector;rounded=1;orthogonalLoop=1;jettySize=auto;html=1;exitX=0.5;exitY=1;exitDx=0;exitDy=0;entryX=0.5;entryY=0;entryDx=0;entryDy=0;labelBackgroundColor=none;fontFamily=Verdana;fontSize=12;fontColor=default;endArrow=open;endSize=8;strokeColor=#ff0000;" parent="2a3bc250acf0617d-7" source="h1i1fMUlBGNaVs3A6D3q-14" target="3cde6dad864a17aa-1" edge="1">
          <mxGeometry relative="1" as="geometry" />
        </mxCell>
        <mxCell id="h1i1fMUlBGNaVs3A6D3q-14" value="" style="rhombus;whiteSpace=wrap;html=1;strokeColor=#ff0000;fontFamily=Verdana;fillColor=#ffffc0;fontColor=#000000;rounded=0;arcSize=24;shadow=0;comic=0;labelBackgroundColor=none;" parent="2a3bc250acf0617d-7" vertex="1">
          <mxGeometry x="140" y="250" width="80" height="80" as="geometry" />
        </mxCell>
        <mxCell id="h1i1fMUlBGNaVs3A6D3q-37" value="" style="edgeStyle=elbowEdgeStyle;shape=connector;rounded=1;orthogonalLoop=1;jettySize=auto;html=1;labelBackgroundColor=none;fontFamily=Verdana;fontSize=12;fontColor=default;endArrow=open;endSize=8;strokeColor=#ff0000;" parent="2a3bc250acf0617d-7" source="h1i1fMUlBGNaVs3A6D3q-34" target="h1i1fMUlBGNaVs3A6D3q-36" edge="1">
          <mxGeometry relative="1" as="geometry" />
        </mxCell>
        <mxCell id="h1i1fMUlBGNaVs3A6D3q-34" value="" style="rhombus;whiteSpace=wrap;html=1;fontFamily=Verdana;fillColor=#ffffc0;strokeColor=#ff0000;fontColor=#000000;rounded=0;arcSize=24;shadow=0;comic=0;labelBackgroundColor=none;" parent="2a3bc250acf0617d-7" vertex="1">
          <mxGeometry x="150" y="570" width="80" height="80" as="geometry" />
        </mxCell>
        <mxCell id="h1i1fMUlBGNaVs3A6D3q-35" value="" style="edgeStyle=elbowEdgeStyle;shape=connector;rounded=1;orthogonalLoop=1;jettySize=auto;html=1;labelBackgroundColor=none;fontFamily=Verdana;fontSize=12;fontColor=default;endArrow=open;endSize=8;strokeColor=#ff0000;" parent="2a3bc250acf0617d-7" source="3cde6dad864a17aa-2" target="h1i1fMUlBGNaVs3A6D3q-34" edge="1">
          <mxGeometry relative="1" as="geometry" />
        </mxCell>
        <mxCell id="h1i1fMUlBGNaVs3A6D3q-36" value="Affiche la page de modification du jeu" style="whiteSpace=wrap;html=1;fontFamily=Verdana;fillColor=#ffffc0;strokeColor=#ff0000;fontColor=#000000;rounded=1;arcSize=24;shadow=0;comic=0;labelBackgroundColor=none;" parent="2a3bc250acf0617d-7" vertex="1">
          <mxGeometry x="130" y="700" width="120" height="60" as="geometry" />
        </mxCell>
        <mxCell id="h1i1fMUlBGNaVs3A6D3q-43" value="Enregistre les modifications" style="whiteSpace=wrap;html=1;fontFamily=Verdana;fillColor=#ffffc0;strokeColor=#ff0000;fontColor=#000000;rounded=1;arcSize=24;shadow=0;comic=0;labelBackgroundColor=none;" parent="2a3bc250acf0617d-7" vertex="1">
          <mxGeometry x="130" y="840" width="120" height="60" as="geometry" />
        </mxCell>
        <mxCell id="n5EENzQxj84cjImb0H1i-5" value="Affiche la page du type d&#39;ajout" style="whiteSpace=wrap;html=1;fontFamily=Verdana;fillColor=#ffffc0;strokeColor=#ff0000;fontColor=#000000;rounded=1;arcSize=24;shadow=0;comic=0;labelBackgroundColor=none;" vertex="1" parent="2a3bc250acf0617d-7">
          <mxGeometry x="400" y="140" width="120" height="60" as="geometry" />
        </mxCell>
        <mxCell id="n5EENzQxj84cjImb0H1i-13" value="" style="edgeStyle=elbowEdgeStyle;shape=connector;rounded=1;orthogonalLoop=1;jettySize=auto;html=1;labelBackgroundColor=none;fontFamily=Verdana;fontSize=12;fontColor=default;endArrow=open;endSize=8;strokeColor=#ff0000;" edge="1" parent="2a3bc250acf0617d-7" source="n5EENzQxj84cjImb0H1i-10" target="n5EENzQxj84cjImb0H1i-12">
          <mxGeometry relative="1" as="geometry" />
        </mxCell>
        <mxCell id="n5EENzQxj84cjImb0H1i-10" value="Vérifie si l&#39;ajout existe" style="whiteSpace=wrap;html=1;fontFamily=Verdana;fillColor=#ffffc0;strokeColor=#ff0000;fontColor=#000000;rounded=1;arcSize=24;shadow=0;comic=0;labelBackgroundColor=none;" vertex="1" parent="2a3bc250acf0617d-7">
          <mxGeometry x="410" y="280" width="120" height="60" as="geometry" />
        </mxCell>
        <mxCell id="n5EENzQxj84cjImb0H1i-21" value="" style="edgeStyle=elbowEdgeStyle;shape=connector;rounded=1;orthogonalLoop=1;jettySize=auto;html=1;labelBackgroundColor=none;fontFamily=Verdana;fontSize=12;fontColor=default;endArrow=open;endSize=8;strokeColor=#ff0000;" edge="1" parent="2a3bc250acf0617d-7" source="n5EENzQxj84cjImb0H1i-12" target="n5EENzQxj84cjImb0H1i-20">
          <mxGeometry relative="1" as="geometry" />
        </mxCell>
        <mxCell id="n5EENzQxj84cjImb0H1i-22" value="N&#39;existe pas" style="edgeLabel;html=1;align=center;verticalAlign=middle;resizable=0;points=[];fontSize=12;fontFamily=Verdana;fontColor=default;" vertex="1" connectable="0" parent="n5EENzQxj84cjImb0H1i-21">
          <mxGeometry x="-0.4517" relative="1" as="geometry">
            <mxPoint as="offset" />
          </mxGeometry>
        </mxCell>
        <mxCell id="n5EENzQxj84cjImb0H1i-12" value="" style="rhombus;whiteSpace=wrap;html=1;fontFamily=Verdana;fillColor=#ffffc0;strokeColor=#ff0000;fontColor=#000000;rounded=0;arcSize=24;shadow=0;comic=0;labelBackgroundColor=none;" vertex="1" parent="2a3bc250acf0617d-7">
          <mxGeometry x="430" y="410" width="80" height="80" as="geometry" />
        </mxCell>
        <mxCell id="n5EENzQxj84cjImb0H1i-19" style="edgeStyle=elbowEdgeStyle;shape=connector;rounded=1;orthogonalLoop=1;jettySize=auto;html=1;entryX=1;entryY=0.75;entryDx=0;entryDy=0;labelBackgroundColor=none;fontFamily=Verdana;fontSize=12;fontColor=default;endArrow=open;endSize=8;strokeColor=#ff0000;" edge="1" parent="2a3bc250acf0617d-7" source="n5EENzQxj84cjImb0H1i-14" target="n5EENzQxj84cjImb0H1i-5">
          <mxGeometry relative="1" as="geometry">
            <Array as="points">
              <mxPoint x="600" y="320" />
            </Array>
          </mxGeometry>
        </mxCell>
        <mxCell id="n5EENzQxj84cjImb0H1i-14" value="Message d&#39;alerte" style="whiteSpace=wrap;html=1;fontFamily=Verdana;fillColor=#ffffc0;strokeColor=#ff0000;fontColor=#000000;rounded=1;arcSize=24;shadow=0;comic=0;labelBackgroundColor=none;" vertex="1" parent="2a3bc250acf0617d-7">
          <mxGeometry x="580" y="420" width="120" height="60" as="geometry" />
        </mxCell>
        <mxCell id="n5EENzQxj84cjImb0H1i-15" value="" style="edgeStyle=elbowEdgeStyle;shape=connector;rounded=1;orthogonalLoop=1;jettySize=auto;html=1;labelBackgroundColor=none;fontFamily=Verdana;fontSize=12;fontColor=default;endArrow=open;endSize=8;strokeColor=#ff0000;" edge="1" parent="2a3bc250acf0617d-7" source="n5EENzQxj84cjImb0H1i-12" target="n5EENzQxj84cjImb0H1i-14">
          <mxGeometry relative="1" as="geometry" />
        </mxCell>
        <mxCell id="n5EENzQxj84cjImb0H1i-16" value="&lt;div&gt;Existe&lt;/div&gt;&lt;div&gt;déjà&lt;br&gt;&lt;/div&gt;" style="edgeLabel;html=1;align=center;verticalAlign=middle;resizable=0;points=[];fontSize=12;fontFamily=Verdana;fontColor=default;" vertex="1" connectable="0" parent="n5EENzQxj84cjImb0H1i-15">
          <mxGeometry x="-0.5143" relative="1" as="geometry">
            <mxPoint as="offset" />
          </mxGeometry>
        </mxCell>
        <mxCell id="n5EENzQxj84cjImb0H1i-25" style="edgeStyle=elbowEdgeStyle;shape=connector;rounded=1;orthogonalLoop=1;jettySize=auto;html=1;entryX=0.5;entryY=0;entryDx=0;entryDy=0;labelBackgroundColor=none;fontFamily=Verdana;fontSize=12;fontColor=default;endArrow=open;endSize=8;strokeColor=#ff0000;" edge="1" parent="2a3bc250acf0617d-7" source="n5EENzQxj84cjImb0H1i-20" target="n5EENzQxj84cjImb0H1i-23">
          <mxGeometry relative="1" as="geometry" />
        </mxCell>
        <mxCell id="n5EENzQxj84cjImb0H1i-20" value="Fait l&#39;ajout" style="whiteSpace=wrap;html=1;fontFamily=Verdana;fillColor=#ffffc0;strokeColor=#ff0000;fontColor=#000000;rounded=1;arcSize=24;shadow=0;comic=0;labelBackgroundColor=none;" vertex="1" parent="2a3bc250acf0617d-7">
          <mxGeometry x="410" y="580" width="120" height="60" as="geometry" />
        </mxCell>
        <mxCell id="n5EENzQxj84cjImb0H1i-23" value="" style="ellipse;html=1;shape=endState;fillColor=#000000;strokeColor=#ff0000;rounded=1;shadow=0;comic=0;labelBackgroundColor=none;fontFamily=Verdana;fontSize=12;fontColor=#000000;align=center;" vertex="1" parent="2a3bc250acf0617d-7">
          <mxGeometry x="460" y="680" width="30" height="30" as="geometry" />
        </mxCell>
        <mxCell id="n5EENzQxj84cjImb0H1i-26" style="edgeStyle=elbowEdgeStyle;shape=connector;rounded=1;orthogonalLoop=1;jettySize=auto;html=1;entryX=0.5;entryY=0;entryDx=0;entryDy=0;labelBackgroundColor=none;fontFamily=Verdana;fontSize=12;fontColor=default;endArrow=open;endSize=8;strokeColor=#ff0000;" edge="1" target="n5EENzQxj84cjImb0H1i-27" parent="2a3bc250acf0617d-7">
          <mxGeometry relative="1" as="geometry">
            <mxPoint x="189.5" y="900" as="sourcePoint" />
          </mxGeometry>
        </mxCell>
        <mxCell id="n5EENzQxj84cjImb0H1i-27" value="" style="ellipse;html=1;shape=endState;fillColor=#000000;strokeColor=#ff0000;rounded=1;shadow=0;comic=0;labelBackgroundColor=none;fontFamily=Verdana;fontSize=12;fontColor=#000000;align=center;" vertex="1" parent="2a3bc250acf0617d-7">
          <mxGeometry x="175" y="930" width="30" height="30" as="geometry" />
        </mxCell>
        <mxCell id="2a3bc250acf0617d-9" style="edgeStyle=orthogonalEdgeStyle;html=1;labelBackgroundColor=none;endArrow=open;endSize=8;strokeColor=#ff0000;fontFamily=Verdana;fontSize=12;align=left;" parent="1" source="382b91b5511bd0f7-1" target="382b91b5511bd0f7-6" edge="1">
          <mxGeometry relative="1" as="geometry" />
        </mxCell>
        <mxCell id="h1i1fMUlBGNaVs3A6D3q-7" style="edgeStyle=orthogonalEdgeStyle;rounded=1;orthogonalLoop=1;jettySize=auto;html=1;exitX=0.5;exitY=1;exitDx=0;exitDy=0;entryX=0;entryY=0.5;entryDx=0;entryDy=0;labelBackgroundColor=none;endArrow=open;fontSize=12;fontFamily=Verdana;align=left;strokeColor=#ff0000;endSize=8;" parent="1" source="h1i1fMUlBGNaVs3A6D3q-4" target="382b91b5511bd0f7-8" edge="1">
          <mxGeometry relative="1" as="geometry">
            <mxPoint x="249.5882352941178" y="150" as="targetPoint" />
          </mxGeometry>
        </mxCell>
        <mxCell id="h1i1fMUlBGNaVs3A6D3q-9" value="&lt;div&gt;Sans filtre&lt;/div&gt;" style="edgeLabel;html=1;align=center;verticalAlign=middle;resizable=0;points=[];fontSize=12;fontFamily=Verdana;fontColor=default;" parent="h1i1fMUlBGNaVs3A6D3q-7" vertex="1" connectable="0">
          <mxGeometry x="0.2426" y="-2" relative="1" as="geometry">
            <mxPoint x="-70" y="-92" as="offset" />
          </mxGeometry>
        </mxCell>
        <mxCell id="h1i1fMUlBGNaVs3A6D3q-8" style="edgeStyle=elbowEdgeStyle;shape=connector;rounded=1;orthogonalLoop=1;jettySize=auto;html=1;entryX=0.5;entryY=0;entryDx=0;entryDy=0;labelBackgroundColor=none;fontFamily=Verdana;fontSize=12;fontColor=default;endArrow=open;endSize=8;strokeColor=#ff0000;" parent="1" source="h1i1fMUlBGNaVs3A6D3q-4" target="h1i1fMUlBGNaVs3A6D3q-6" edge="1">
          <mxGeometry relative="1" as="geometry">
            <Array as="points">
              <mxPoint x="650" />
            </Array>
          </mxGeometry>
        </mxCell>
        <mxCell id="h1i1fMUlBGNaVs3A6D3q-10" value="&lt;div&gt;Avec filtre&lt;/div&gt;" style="edgeLabel;html=1;align=center;verticalAlign=middle;resizable=0;points=[];fontSize=12;fontFamily=Verdana;fontColor=default;" parent="h1i1fMUlBGNaVs3A6D3q-8" vertex="1" connectable="0">
          <mxGeometry x="-0.2811" y="-2" relative="1" as="geometry">
            <mxPoint x="-123" y="-2" as="offset" />
          </mxGeometry>
        </mxCell>
        <mxCell id="h1i1fMUlBGNaVs3A6D3q-4" value="" style="rhombus;whiteSpace=wrap;html=1;strokeColor=#ff0000;fontFamily=Verdana;fillColor=#ffffc0;fontColor=#000000;rounded=0;arcSize=24;shadow=0;comic=0;labelBackgroundColor=none;" parent="1" vertex="1">
          <mxGeometry x="210" y="-40" width="80" height="80" as="geometry" />
        </mxCell>
        <mxCell id="h1i1fMUlBGNaVs3A6D3q-20" style="edgeStyle=elbowEdgeStyle;shape=connector;rounded=1;orthogonalLoop=1;jettySize=auto;html=1;exitX=0.5;exitY=1;exitDx=0;exitDy=0;labelBackgroundColor=none;fontFamily=Verdana;fontSize=12;fontColor=default;endArrow=open;endSize=8;strokeColor=#ff0000;entryX=0;entryY=0.5;entryDx=0;entryDy=0;" parent="1" source="h1i1fMUlBGNaVs3A6D3q-18" target="3cde6dad864a17aa-2" edge="1">
          <mxGeometry relative="1" as="geometry">
            <mxPoint x="249.5882352941178" y="440" as="targetPoint" />
          </mxGeometry>
        </mxCell>
        <mxCell id="h1i1fMUlBGNaVs3A6D3q-18" value="Choisit un jeu à modifier" style="rounded=1;whiteSpace=wrap;html=1;arcSize=24;fillColor=#ffffc0;strokeColor=#ff0000;shadow=0;comic=0;labelBackgroundColor=none;fontFamily=Verdana;fontSize=12;fontColor=#000000;align=center;" parent="1" vertex="1">
          <mxGeometry x="190" y="290" width="120" height="60" as="geometry" />
        </mxCell>
        <mxCell id="h1i1fMUlBGNaVs3A6D3q-19" style="edgeStyle=elbowEdgeStyle;shape=connector;rounded=1;orthogonalLoop=1;jettySize=auto;html=1;exitX=0;exitY=0.5;exitDx=0;exitDy=0;entryX=1;entryY=0.5;entryDx=0;entryDy=0;labelBackgroundColor=none;fontFamily=Verdana;fontSize=12;fontColor=default;endArrow=open;endSize=8;strokeColor=#ff0000;" parent="1" source="3cde6dad864a17aa-1" target="h1i1fMUlBGNaVs3A6D3q-18" edge="1">
          <mxGeometry relative="1" as="geometry" />
        </mxCell>
        <mxCell id="h1i1fMUlBGNaVs3A6D3q-25" style="edgeStyle=elbowEdgeStyle;shape=connector;rounded=1;orthogonalLoop=1;jettySize=auto;html=1;entryX=0.5;entryY=1;entryDx=0;entryDy=0;labelBackgroundColor=none;fontFamily=Verdana;fontSize=12;fontColor=default;endArrow=open;endSize=8;strokeColor=#ff0000;" parent="1" source="h1i1fMUlBGNaVs3A6D3q-24" target="382b91b5511bd0f7-1" edge="1">
          <mxGeometry relative="1" as="geometry" />
        </mxCell>
        <mxCell id="h1i1fMUlBGNaVs3A6D3q-24" value="User" style="shape=umlActor;verticalLabelPosition=bottom;verticalAlign=top;html=1;outlineConnect=0;rounded=0;fontFamily=Verdana;fontSize=12;fontColor=default;strokeColor=default;" parent="1" vertex="1">
          <mxGeometry x="170" y="-280" width="30" height="60" as="geometry" />
        </mxCell>
        <mxCell id="h1i1fMUlBGNaVs3A6D3q-44" value="" style="edgeStyle=elbowEdgeStyle;shape=connector;rounded=1;orthogonalLoop=1;jettySize=auto;html=1;labelBackgroundColor=none;fontFamily=Verdana;fontSize=12;fontColor=default;endArrow=open;endSize=8;strokeColor=#ff0000;" parent="1" source="h1i1fMUlBGNaVs3A6D3q-41" target="h1i1fMUlBGNaVs3A6D3q-43" edge="1">
          <mxGeometry relative="1" as="geometry">
            <Array as="points">
              <mxPoint x="270" y="800" />
              <mxPoint x="270" y="780" />
            </Array>
          </mxGeometry>
        </mxCell>
        <mxCell id="h1i1fMUlBGNaVs3A6D3q-41" value="Choisit les modifications" style="whiteSpace=wrap;html=1;fontFamily=Verdana;fillColor=#ffffc0;strokeColor=#ff0000;fontColor=#000000;rounded=1;arcSize=24;shadow=0;comic=0;labelBackgroundColor=none;" parent="1" vertex="1">
          <mxGeometry x="210" y="630" width="120" height="60" as="geometry" />
        </mxCell>
        <mxCell id="h1i1fMUlBGNaVs3A6D3q-42" value="" style="edgeStyle=elbowEdgeStyle;shape=connector;rounded=1;orthogonalLoop=1;jettySize=auto;html=1;labelBackgroundColor=none;fontFamily=Verdana;fontSize=12;fontColor=default;endArrow=open;endSize=8;strokeColor=#ff0000;" parent="1" source="h1i1fMUlBGNaVs3A6D3q-36" target="h1i1fMUlBGNaVs3A6D3q-41" edge="1">
          <mxGeometry relative="1" as="geometry" />
        </mxCell>
        <mxCell id="n5EENzQxj84cjImb0H1i-4" value="" style="edgeStyle=elbowEdgeStyle;shape=connector;rounded=1;orthogonalLoop=1;jettySize=auto;html=1;labelBackgroundColor=none;fontFamily=Verdana;fontSize=12;fontColor=default;endArrow=open;endSize=8;strokeColor=#ff0000;" edge="1" parent="1" source="n5EENzQxj84cjImb0H1i-1" target="n5EENzQxj84cjImb0H1i-3">
          <mxGeometry relative="1" as="geometry" />
        </mxCell>
        <mxCell id="n5EENzQxj84cjImb0H1i-1" value="&lt;div&gt;Ajout&lt;/div&gt;" style="rounded=1;whiteSpace=wrap;html=1;arcSize=24;fillColor=#ffffc0;strokeColor=#ff0000;shadow=0;comic=0;labelBackgroundColor=none;fontFamily=Verdana;fontSize=12;fontColor=#000000;align=center;" vertex="1" parent="1">
          <mxGeometry x="480" y="-150" width="120" height="60" as="geometry" />
        </mxCell>
        <mxCell id="n5EENzQxj84cjImb0H1i-6" value="" style="edgeStyle=elbowEdgeStyle;shape=connector;rounded=1;orthogonalLoop=1;jettySize=auto;html=1;labelBackgroundColor=none;fontFamily=Verdana;fontSize=12;fontColor=default;endArrow=open;endSize=8;strokeColor=#ff0000;" edge="1" parent="1" source="n5EENzQxj84cjImb0H1i-3" target="n5EENzQxj84cjImb0H1i-5">
          <mxGeometry relative="1" as="geometry" />
        </mxCell>
        <mxCell id="n5EENzQxj84cjImb0H1i-7" value="Type d&#39;ajout" style="edgeLabel;html=1;align=center;verticalAlign=middle;resizable=0;points=[];fontSize=12;fontFamily=Verdana;fontColor=default;" vertex="1" connectable="0" parent="n5EENzQxj84cjImb0H1i-6">
          <mxGeometry x="0.3532" y="-1" relative="1" as="geometry">
            <mxPoint y="1" as="offset" />
          </mxGeometry>
        </mxCell>
        <mxCell id="n5EENzQxj84cjImb0H1i-3" value="" style="rhombus;whiteSpace=wrap;html=1;fontFamily=Verdana;fillColor=#ffffc0;strokeColor=#ff0000;fontColor=#000000;rounded=0;arcSize=24;shadow=0;comic=0;labelBackgroundColor=none;" vertex="1" parent="1">
          <mxGeometry x="820" y="-160" width="80" height="80" as="geometry" />
        </mxCell>
        <mxCell id="n5EENzQxj84cjImb0H1i-11" value="" style="edgeStyle=elbowEdgeStyle;shape=connector;rounded=1;orthogonalLoop=1;jettySize=auto;html=1;labelBackgroundColor=none;fontFamily=Verdana;fontSize=12;fontColor=default;endArrow=open;endSize=8;strokeColor=#ff0000;" edge="1" parent="1" source="n5EENzQxj84cjImb0H1i-8" target="n5EENzQxj84cjImb0H1i-10">
          <mxGeometry relative="1" as="geometry">
            <Array as="points">
              <mxPoint x="1380" y="240" />
            </Array>
          </mxGeometry>
        </mxCell>
        <mxCell id="n5EENzQxj84cjImb0H1i-8" value="Choisit l&#39;ajout" style="whiteSpace=wrap;html=1;fontFamily=Verdana;fillColor=#ffffc0;strokeColor=#ff0000;fontColor=#000000;rounded=1;arcSize=24;shadow=0;comic=0;labelBackgroundColor=none;" vertex="1" parent="1">
          <mxGeometry x="1320" y="70" width="120" height="60" as="geometry" />
        </mxCell>
        <mxCell id="n5EENzQxj84cjImb0H1i-9" value="" style="edgeStyle=elbowEdgeStyle;shape=connector;rounded=1;orthogonalLoop=1;jettySize=auto;html=1;labelBackgroundColor=none;fontFamily=Verdana;fontSize=12;fontColor=default;endArrow=open;endSize=8;strokeColor=#ff0000;" edge="1" parent="1" source="n5EENzQxj84cjImb0H1i-5" target="n5EENzQxj84cjImb0H1i-8">
          <mxGeometry relative="1" as="geometry" />
        </mxCell>
      </root>
    </mxGraphModel>
  </diagram>
</mxfile>
